<svg width="375" height="122" viewBox="0 0 375 122" fill="none" xmlns="http://www.w3.org/2000/svg">
<path d="M52.8417 28.3206H51.9607V45.188H52.8417V28.3206Z" fill="#0C0421"/>
<path d="M52.8417 16.0969H51.9607V29.4771H52.8417V16.0969Z" fill="#0C0421"/>
<path d="M52.4011 17.198C53.3641 17.198 54.1448 16.4173 54.1448 15.4543C54.1448 14.4914 53.3641 13.7107 52.4011 13.7107C51.4381 13.7107 50.6575 14.4914 50.6575 15.4543C50.6575 16.4173 51.4381 17.198 52.4011 17.198Z" fill="#0C0421"/>
<path d="M58.7045 17.5301L52.0063 29.113L52.769 29.5541L59.4672 17.9712L58.7045 17.5301Z" fill="#0C0421"/>
<path d="M59.3757 18.9414C60.3387 18.9414 61.1194 18.1607 61.1194 17.1977C61.1194 16.2348 60.3387 15.4541 59.3757 15.4541C58.4127 15.4541 57.6321 16.2348 57.6321 17.1977C57.6321 18.1607 58.4127 18.9414 59.3757 18.9414Z" fill="#0C0421"/>
<path d="M46.1154 17.5285L45.3524 17.969L52.0425 29.5566L52.8055 29.1161L46.1154 17.5285Z" fill="#0C0421"/>
<path d="M45.4082 18.9414C46.3712 18.9414 47.1518 18.1607 47.1518 17.1977C47.1518 16.2348 46.3712 15.4541 45.4082 15.4541C44.4452 15.4541 43.6646 16.2348 43.6646 17.1977C43.6646 18.1607 44.4452 18.9414 45.4082 18.9414Z" fill="#0C0421"/>
<path d="M52.8417 90.541H51.9607V107.408H52.8417V90.541Z" fill="#0C0421"/>
<path d="M52.8417 106.252H51.9607V119.632H52.8417V106.252Z" fill="#0C0421"/>
<path d="M52.4011 122C53.3641 122 54.1448 121.219 54.1448 120.256C54.1448 119.293 53.3641 118.513 52.4011 118.513C51.4381 118.513 50.6575 119.293 50.6575 120.256C50.6575 121.219 51.4381 122 52.4011 122Z" fill="#0C0421"/>
<path d="M52.0536 106.174L45.3555 117.757L46.1181 118.198L52.8163 106.615L52.0536 106.174Z" fill="#0C0421"/>
<path d="M45.4082 120.257C46.3712 120.257 47.1518 119.476 47.1518 118.513C47.1518 117.55 46.3712 116.769 45.4082 116.769C44.4452 116.769 43.6646 117.55 43.6646 118.513C43.6646 119.476 44.4452 120.257 45.4082 120.257Z" fill="#0C0421"/>
<path d="M52.7597 106.161L51.9967 106.602L58.6868 118.189L59.4498 117.749L52.7597 106.161Z" fill="#0C0421"/>
<path d="M59.3757 120.257C60.3387 120.257 61.1194 119.476 61.1194 118.513C61.1194 117.55 60.3387 116.769 59.3757 116.769C58.4127 116.769 57.6321 117.55 57.6321 118.513C57.6321 119.476 58.4127 120.257 59.3757 120.257Z" fill="#0C0421"/>
<path d="M38.4134 31.7285L37.5995 32.0657L44.0544 47.6492L44.8683 47.312L38.4134 31.7285Z" fill="#0C0421"/>
<path d="M33.7246 20.4274L32.9108 20.7646L38.0333 33.1254L38.8472 32.7881L33.7246 20.4274Z" fill="#0C0421"/>
<path d="M33.0741 21.7683C34.0371 21.7683 34.8177 20.9876 34.8177 20.0247C34.8177 19.0617 34.0371 18.281 33.0741 18.281C32.1111 18.281 31.3304 19.0617 31.3304 20.0247C31.3304 20.9876 32.1111 21.7683 33.0741 21.7683Z" fill="#0C0421"/>
<path d="M38.8006 32.8911L37.938 32.781L39.6816 19.5293L40.5443 19.6394L38.8006 32.8911Z" fill="#0C0421"/>
<path d="M40.1955 20.7038C41.1585 20.7038 41.9392 19.9232 41.9392 18.9602C41.9392 17.9972 41.1585 17.2166 40.1955 17.2166C39.2326 17.2166 38.4519 17.9972 38.4519 18.9602C38.4519 19.9232 39.2326 20.7038 40.1955 20.7038Z" fill="#0C0421"/>
<path d="M28.0858 24.3396L27.5494 25.0386L38.1646 33.1839L38.701 32.485L28.0858 24.3396Z" fill="#0C0421"/>
<path d="M27.2926 26.0451C28.2556 26.0451 29.0362 25.2645 29.0362 24.3015C29.0362 23.3385 28.2556 22.5579 27.2926 22.5579C26.3296 22.5579 25.549 23.3385 25.549 24.3015C25.549 25.2645 26.3296 26.0451 27.2926 26.0451Z" fill="#0C0421"/>
<path d="M25.7083 40.5601L25.0853 41.1831L37.0124 53.1102L37.6354 52.4872L25.7083 40.5601Z" fill="#0C0421"/>
<path d="M17.0696 31.9183L16.4467 32.5413L25.9079 42.0025L26.5308 41.3795L17.0696 31.9183Z" fill="#0C0421"/>
<path d="M16.3169 33.5149C17.2799 33.5149 18.0605 32.7342 18.0605 31.7712C18.0605 30.8082 17.2799 30.0276 16.3169 30.0276C15.3539 30.0276 14.5732 30.8082 14.5732 31.7712C14.5732 32.7342 15.3539 33.5149 16.3169 33.5149Z" fill="#0C0421"/>
<path d="M23.0907 28.5593L22.2397 28.7874L25.7028 41.7116L26.5538 41.4836L23.0907 28.5593Z" fill="#0C0421"/>
<path d="M22.4838 29.8254C23.4467 29.8254 24.2274 29.0448 24.2274 28.0818C24.2274 27.1188 23.4467 26.3381 22.4838 26.3381C21.5208 26.3381 20.7401 27.1188 20.7401 28.0818C20.7401 29.0448 21.5208 29.8254 22.4838 29.8254Z" fill="#0C0421"/>
<path d="M13.3517 37.6886L13.1235 38.5396L26.0472 42.0049L26.2754 41.1539L13.3517 37.6886Z" fill="#0C0421"/>
<path d="M12.6092 39.7002C13.5722 39.7002 14.3529 38.9195 14.3529 37.9565C14.3529 36.9935 13.5722 36.2129 12.6092 36.2129C11.6463 36.2129 10.8656 36.9935 10.8656 37.9565C10.8656 38.9195 11.6463 39.7002 12.6092 39.7002Z" fill="#0C0421"/>
<path d="M18.3462 53.055L18.009 53.8689L33.5925 60.3238L33.9297 59.5099L18.3462 53.055Z" fill="#0C0421"/>
<path d="M7.05626 48.3648L6.71912 49.1787L19.0808 54.2991L19.4179 53.4851L7.05626 48.3648Z" fill="#0C0421"/>
<path d="M6.29552 50.2905C7.25851 50.2905 8.03917 49.5099 8.03917 48.5469C8.03917 47.5839 7.25851 46.8032 6.29552 46.8032C5.33254 46.8032 4.55188 47.5839 4.55188 48.5469C4.55188 49.5099 5.33254 50.2905 6.29552 50.2905Z" fill="#0C0421"/>
<path d="M11.3278 42.9825L10.6289 43.5188L18.7742 54.134L19.4732 53.5977L11.3278 42.9825Z" fill="#0C0421"/>
<path d="M10.5903 44.4907C11.5533 44.4907 12.334 43.7101 12.334 42.7471C12.334 41.7841 11.5533 41.0034 10.5903 41.0034C9.62734 41.0034 8.84668 41.7841 8.84668 42.7471C8.84668 43.7101 9.62734 44.4907 10.5903 44.4907Z" fill="#0C0421"/>
<path d="M5.92836 55.9986L5.81824 55.136L19.0699 53.3923L19.1801 54.255L5.92836 55.9986Z" fill="#0C0421"/>
<path d="M5.24938 57.3938C6.21237 57.3938 6.99303 56.6131 6.99303 55.6501C6.99303 54.6871 6.21237 53.9065 5.24938 53.9065C4.28639 53.9065 3.50574 54.6871 3.50574 55.6501C3.50574 56.6131 4.28639 57.3938 5.24938 57.3938Z" fill="#0C0421"/>
<path d="M31.459 67.415H14.5916V68.296H31.459V67.415Z" fill="#0C0421"/>
<path d="M15.7662 67.415H2.38599V68.296H15.7662V67.415Z" fill="#0C0421"/>
<path d="M1.74364 69.5991C2.70663 69.5991 3.48729 68.8185 3.48729 67.8555C3.48729 66.8925 2.70663 66.1118 1.74364 66.1118C0.780656 66.1118 0 66.8925 0 67.8555C0 68.8185 0.780656 69.5991 1.74364 69.5991Z" fill="#0C0421"/>
<path d="M4.27107 60.8076L3.83057 61.5706L15.4181 68.2606L15.8586 67.4977L4.27107 60.8076Z" fill="#0C0421"/>
<path d="M3.4873 62.6242C4.45028 62.6242 5.23094 61.8436 5.23094 60.8806C5.23094 59.9176 4.45028 59.137 3.4873 59.137C2.52431 59.137 1.74365 59.9176 1.74365 60.8806C1.74365 61.8436 2.52431 62.6242 3.4873 62.6242Z" fill="#0C0421"/>
<path d="M15.4072 67.4476L3.82434 74.1458L4.26537 74.9084L15.8483 68.2102L15.4072 67.4476Z" fill="#0C0421"/>
<path d="M3.4873 76.592C4.45028 76.592 5.23094 75.8114 5.23094 74.8484C5.23094 73.8854 4.45028 73.1047 3.4873 73.1047C2.52431 73.1047 1.74365 73.8854 1.74365 74.8484C1.74365 75.8114 2.52431 76.592 3.4873 76.592Z" fill="#0C0421"/>
<path d="M33.5834 75.4036L17.9954 81.8477L18.3319 82.6618L33.9199 76.2178L33.5834 75.4036Z" fill="#0C0421"/>
<path d="M19.0781 81.42L6.71289 86.5317L7.04947 87.3459L19.4147 82.2342L19.0781 81.42Z" fill="#0C0421"/>
<path d="M6.29552 88.926C7.25851 88.926 8.03917 88.1454 8.03917 87.1824C8.03917 86.2194 7.25851 85.4387 6.29552 85.4387C5.33254 85.4387 4.55188 86.2194 4.55188 87.1824C4.55188 88.1454 5.33254 88.926 6.29552 88.926Z" fill="#0C0421"/>
<path d="M19.0699 82.3184L5.81824 80.5748L5.92836 79.7122L19.1801 81.4558L19.0699 82.3184Z" fill="#0C0421"/>
<path d="M5.24938 81.8044C6.21237 81.8044 6.99303 81.0238 6.99303 80.0608C6.99303 79.0978 6.21237 78.3171 5.24938 78.3171C4.28639 78.3171 3.50574 79.0978 3.50574 80.0608C3.50574 81.0238 4.28639 81.8044 5.24938 81.8044Z" fill="#0C0421"/>
<path d="M18.7771 81.5751L10.6355 92.1931L11.3346 92.7292L19.4763 82.1111L18.7771 81.5751Z" fill="#0C0421"/>
<path d="M10.5903 94.7073C11.5533 94.7073 12.334 93.9266 12.334 92.9636C12.334 92.0006 11.5533 91.22 10.5903 91.22C9.62734 91.22 8.84668 92.0006 8.84668 92.9636C8.84668 93.9266 9.62734 94.7073 10.5903 94.7073Z" fill="#0C0421"/>
<path d="M37.0251 82.609L25.098 94.5361L25.721 95.1591L37.6481 83.232L37.0251 82.609Z" fill="#0C0421"/>
<path d="M25.9176 93.7138L16.4564 103.175L17.0794 103.798L26.5406 94.3368L25.9176 93.7138Z" fill="#0C0421"/>
<path d="M16.3169 105.683C17.2799 105.683 18.0605 104.902 18.0605 103.939C18.0605 102.976 17.2799 102.196 16.3169 102.196C15.3539 102.196 14.5732 102.976 14.5732 103.939C14.5732 104.902 15.3539 105.683 16.3169 105.683Z" fill="#0C0421"/>
<path d="M26.0391 93.7239L13.1155 97.1892L13.3436 98.0401L26.2673 94.5748L26.0391 93.7239Z" fill="#0C0421"/>
<path d="M12.6092 99.5163C13.5722 99.5163 14.3529 98.7357 14.3529 97.7727C14.3529 96.8097 13.5722 96.0291 12.6092 96.0291C11.6463 96.0291 10.8656 96.8097 10.8656 97.7727C10.8656 98.7357 11.6463 99.5163 12.6092 99.5163Z" fill="#0C0421"/>
<path d="M23.2913 107.207L22.0249 106.858L25.4755 93.9365L26.7419 94.2852L23.2913 107.207Z" fill="#0C0421"/>
<path d="M22.4838 109.391C23.4467 109.391 24.2274 108.61 24.2274 107.647C24.2274 106.684 23.4467 105.904 22.4838 105.904C21.5208 105.904 20.7401 106.684 20.7401 107.647C20.7401 108.61 21.5208 109.391 22.4838 109.391Z" fill="#0C0421"/>
<path d="M44.0623 88.0687L37.6183 103.657L38.4325 103.993L44.8765 88.4053L44.0623 88.0687Z" fill="#0C0421"/>
<path d="M38.0389 102.609L32.9271 114.974L33.7413 115.311L38.853 102.946L38.0389 102.609Z" fill="#0C0421"/>
<path d="M33.0742 117.448C34.0372 117.448 34.8179 116.668 34.8179 115.705C34.8179 114.742 34.0372 113.961 33.0742 113.961C32.1112 113.961 31.3306 114.742 31.3306 115.705C31.3306 116.668 32.1112 117.448 33.0742 117.448Z" fill="#0C0421"/>
<path d="M38.1416 102.557L27.5236 110.698L28.0596 111.398L38.6777 103.256L38.1416 102.557Z" fill="#0C0421"/>
<path d="M27.2926 113.154C28.2556 113.154 29.0362 112.373 29.0362 111.41C29.0362 110.447 28.2556 109.666 27.2926 109.666C26.3296 109.666 25.549 110.447 25.549 111.41C25.549 112.373 26.3296 113.154 27.2926 113.154Z" fill="#0C0421"/>
<path d="M39.6816 116.182L37.938 102.93L38.8006 102.82L40.5443 116.072L39.6816 116.182Z" fill="#0C0421"/>
<path d="M40.1955 118.494C41.1585 118.494 41.9392 117.713 41.9392 116.75C41.9392 115.787 41.1585 115.007 40.1955 115.007C39.2326 115.007 38.4519 115.787 38.4519 116.75C38.4519 117.713 39.2326 118.494 40.1955 118.494Z" fill="#0C0421"/>
<path d="M308.992 92.2662C307.634 91.8808 306.514 91.3301 305.652 90.6143C304.789 89.8985 304.367 89.0726 304.367 88.1549V84.0252H305.065C305.505 86.5948 306.349 88.4485 307.616 89.5865C308.882 90.7245 310.607 91.2934 312.81 91.2934C314.205 91.2934 315.38 90.9447 316.371 90.2473C317.362 89.5498 317.857 88.5954 317.857 87.3473C317.857 86.2644 317.527 85.3283 316.848 84.5391C316.187 83.7499 315.104 82.9056 313.618 82.0246L308.882 79.2164C307.23 78.2436 306.074 77.2525 305.395 76.243C304.716 75.2336 304.367 74.0222 304.367 72.5722C304.367 70.59 305.065 69.0115 306.423 67.8185C307.799 66.6255 309.598 66.0198 311.837 66.0198C313.14 66.0198 314.443 66.2033 315.728 66.5704C317.013 66.9375 318.078 67.4881 318.904 68.1856C319.729 68.883 320.152 69.709 320.152 70.6267V74.7563H319.454C319.014 72.1868 318.188 70.3514 316.976 69.2318C315.747 68.1121 314.04 67.5615 311.837 67.5615C310.663 67.5615 309.616 67.9286 308.717 68.6444C307.818 69.3602 307.377 70.2963 307.377 71.4526C307.377 72.4988 307.708 73.3798 308.368 74.0772C309.029 74.7747 310.13 75.5823 311.654 76.5L316.389 79.3082C318.133 80.3544 319.362 81.3455 320.097 82.2448C320.812 83.1442 321.179 84.2822 321.179 85.6771C321.179 87.8429 320.464 89.5682 319.014 90.8529C317.582 92.1561 315.618 92.7985 313.159 92.7985C311.745 92.7985 310.351 92.6149 308.992 92.2295V92.2662Z" fill="#0C0421"/>
<path d="M330.76 71.3608C330.76 70.0577 330.577 69.0849 330.228 68.4425C329.879 67.8001 329.145 67.5065 328.062 67.5065H327.291V66.7356H337.313C339.772 66.7356 341.993 67.2679 343.975 68.3141C345.957 69.3602 346.949 71.4159 346.949 74.4443C346.949 76.4449 346.435 77.9867 345.407 79.0696C344.379 80.1525 343.223 80.8683 341.956 81.2354C340.69 81.6025 339.515 81.7676 338.469 81.7676H334.229V92.1745H330.76V71.3608ZM339.735 79.7854C340.653 79.3633 341.442 78.6841 342.103 77.7664C342.764 76.8487 343.094 75.6741 343.094 74.2608C343.094 72.8475 342.764 71.6729 342.103 70.7552C341.442 69.8374 340.653 69.1583 339.735 68.7362C338.818 68.3141 337.937 68.0938 337.111 68.0938C336.211 68.0938 335.239 68.2223 334.211 68.4792V80.0424C335.239 80.2993 336.193 80.4278 337.111 80.4278C337.937 80.4278 338.799 80.2075 339.735 79.7854Z" fill="#0C0421"/>
<path d="M369.653 91.3485C368.441 90.6694 367.487 89.3479 366.753 87.3657L365.78 84.8511H354.988L351.904 92.1744H350.161L360.953 66.7356H362.109L370.589 87.3657C371.231 88.8523 371.837 89.8802 372.406 90.4308C372.975 90.9814 373.782 91.3118 374.829 91.4219V92.1928C374.37 92.3213 373.856 92.3763 373.287 92.3763C372.057 92.3763 370.827 92.0276 369.634 91.3485H369.653ZM355.575 83.3094H365.009L360.384 72.1317L355.575 83.3094Z" fill="#0C0421"/>
<path d="M93.1106 53.0622C90.3574 51.2635 88.3201 48.8224 86.9436 45.7389C85.5854 42.6554 84.9062 39.2048 84.9062 35.3688C84.9062 31.5327 85.5854 28.0822 86.9436 24.9987C88.3018 21.9152 90.3574 19.4741 93.1106 17.6754C95.8637 15.8766 99.2225 14.9773 103.224 14.9773C109.336 14.9773 113.355 15.9501 115.301 17.8956C116.237 18.8317 116.824 19.988 117.044 21.3462C117.265 22.7044 117.375 25.1639 117.375 28.7062H115.705C115.484 25.274 114.401 22.6677 112.456 20.924C110.51 19.1804 107.996 18.2994 104.876 18.2994C100.874 18.2994 97.8643 19.8779 95.8453 23.0531C93.8264 26.21 92.7985 30.3214 92.7985 35.3688C92.7985 40.4162 93.808 44.5275 95.8453 47.6844C97.8643 50.8413 100.874 52.4198 104.876 52.4198C107.702 52.4198 110.033 51.8875 111.869 50.8046C113.704 49.7217 115.393 48.0515 116.953 45.7756L118.623 47.0236C116.787 50.1255 114.622 52.3647 112.125 53.7229C109.629 55.0811 106.656 55.7602 103.224 55.7602C99.2225 55.7602 95.8637 54.8609 93.1106 53.0622Z" fill="#0C0421"/>
<path d="M131.269 54.6402C129.433 53.8877 127.873 52.658 126.57 50.9327C125.267 49.2074 124.606 46.9315 124.606 44.1049C124.606 39.8835 126.57 36.8917 130.48 35.1114C134.389 33.331 139.51 32.45 145.842 32.45H148.338C148.338 27.0172 147.586 23.2913 146.099 21.2907C144.594 19.2901 142.428 18.299 139.602 18.299C137.105 18.299 135.105 18.8313 133.6 19.8775C132.095 20.9236 131.049 22.7591 130.443 25.3653H126.699C126.699 23.4749 126.809 21.9882 127.029 20.9053C127.249 19.8224 127.837 18.8129 128.773 17.8585C129.764 16.8674 131.416 16.1332 133.728 15.656C136.023 15.1788 138.537 14.9402 141.254 14.9402C145.75 14.9402 149.293 16.1516 151.917 18.556C154.524 20.9787 155.827 25.5856 155.827 32.4133V54.8788H151.66L148.742 51.1346H148.32C147.329 52.4194 145.842 53.5023 143.915 54.3833C141.969 55.2642 139.565 55.7231 136.665 55.7231C134.885 55.7231 133.086 55.356 131.251 54.6035L131.269 54.6402ZM144.998 50.6941C146.209 49.8131 147.329 48.5833 148.32 47.0232V35.7905H145.824C141.712 35.7905 138.464 36.5614 136.078 38.0848C133.692 39.6082 132.499 41.6271 132.499 44.1233C132.499 46.6194 133.269 48.6384 134.793 49.9966C136.316 51.3548 138.188 52.0339 140.409 52.0339C142.245 52.0339 143.768 51.5934 144.979 50.6941H144.998Z" fill="#0C0421"/>
<path d="M167.738 9.98466C167.738 7.15812 167.353 5.06575 166.582 3.70754C165.811 2.34933 164.251 1.67023 161.92 1.67023H160.25V0H167.738C169.794 0 171.336 0.256958 172.364 0.789228C173.392 1.3215 174.126 2.27591 174.566 3.65248C175.007 5.04739 175.227 7.13977 175.227 9.98466V54.934H167.738V9.98466Z" fill="#0C0421"/>
<path d="M188.791 25.8058C188.791 22.9793 188.405 20.8869 187.635 19.5287C186.864 18.1705 185.304 17.4914 182.973 17.4914H181.302V15.8211H188.791C190.847 15.8211 192.407 16.0965 193.49 16.6471C194.572 17.1977 195.362 18.042 195.857 19.1432H196.279C197.436 17.9869 198.959 16.9958 200.813 16.1882C202.667 15.3806 204.759 14.9769 207.09 14.9769C209.421 14.9769 211.422 15.399 213.092 16.2616C214.762 17.1243 216.083 18.6293 217.093 20.7951C218.543 18.9597 220.378 17.5281 222.636 16.5002C224.875 15.4724 227.206 14.9585 229.592 14.9585C233.134 14.9585 235.979 16.0781 238.09 18.2806C240.201 20.5015 241.247 24.3925 241.247 29.9355V54.9155H241.174C237.081 54.9155 233.759 51.5934 233.759 47.5004V29.9355C233.759 25.9343 233.208 23.071 232.088 21.3274C230.969 19.5837 229.317 18.7027 227.096 18.7027C225.536 18.7027 223.902 19.2717 222.177 20.4097C220.452 21.5476 219.185 22.7774 218.341 24.1172C218.616 24.9432 218.763 26.8887 218.763 29.9355V54.9155H218.69C214.597 54.9155 211.275 51.5934 211.275 47.5004V29.9355C211.275 25.9343 210.724 23.071 209.604 21.3274C208.503 19.5837 206.833 18.7027 204.612 18.7027C201.675 18.7027 198.904 20.1711 196.298 23.1077V54.9338H196.224C192.131 54.9338 188.809 51.6117 188.809 47.5188V25.8058H188.791Z" fill="#0C0421"/>
<path d="M256.793 54.6402C254.958 53.8877 253.398 52.658 252.094 50.9327C250.791 49.2074 250.13 46.9315 250.13 44.1049C250.13 39.8835 252.094 36.8917 256.004 35.1114C259.913 33.331 265.034 32.45 271.366 32.45H273.862C273.862 27.0172 273.11 23.2913 271.623 21.2907C270.137 19.2901 267.952 18.299 265.126 18.299C262.63 18.299 260.629 18.8313 259.124 19.8775C257.619 20.9236 256.573 22.7591 255.967 25.3653H252.223C252.223 23.4749 252.333 21.9882 252.553 20.9053C252.774 19.8224 253.361 18.8129 254.297 17.8585C255.288 16.8674 256.94 16.1332 259.253 15.656C261.547 15.1788 264.061 14.9402 266.778 14.9402C271.274 14.9402 274.817 16.1516 277.441 18.556C280.048 20.9787 281.351 25.5856 281.351 32.4133V54.8788H277.185L274.266 51.1346H273.844C272.853 52.4194 271.366 53.5023 269.439 54.3833C267.494 55.2642 265.089 55.7231 262.189 55.7231C260.409 55.7231 258.61 55.356 256.775 54.6035L256.793 54.6402ZM270.522 50.6941C271.733 49.8131 272.853 48.5833 273.844 47.0232V35.7905H271.348C267.237 35.7905 263.988 36.5614 261.602 38.0848C259.216 39.6082 258.023 41.6271 258.023 44.1233C258.023 46.6194 258.794 48.6384 260.317 49.9966C261.84 51.3548 263.713 52.0339 265.933 52.0339C267.769 52.0339 269.292 51.5934 270.504 50.6941H270.522Z" fill="#0C0421"/>
<path d="M293.593 25.8062C293.593 22.9797 293.208 20.8873 292.437 19.5291C291.666 18.1709 290.106 17.4918 287.775 17.4918H286.949V15.8216H293.611C295.722 15.8216 297.319 16.1153 298.402 16.7026C299.485 17.2899 300.237 18.2443 300.696 19.5658H301.118C302.109 18.281 303.468 17.2165 305.156 16.3171C306.845 15.4361 308.827 14.9773 311.103 14.9773C313.379 14.9773 314.994 15.3994 316.095 16.2254C317.031 16.9412 318.004 18.1893 319.014 19.9696L315.691 22.4658C315.086 21.6399 314.186 21.0158 313.03 20.5937C311.874 20.1715 310.534 19.9696 309.029 19.9696C307.359 19.9696 305.835 20.3367 304.459 21.0892C303.064 21.8417 301.963 22.8512 301.137 24.136V54.9343C297.007 54.9343 293.648 51.5755 293.648 47.4458V25.8062H293.593Z" fill="#0C0421"/>
<path d="M327.218 25.8057C327.218 22.9792 326.832 20.8868 326.061 19.5286C325.291 18.1704 323.73 17.4913 321.399 17.4913H319.729V15.821H327.218C329.273 15.821 330.815 16.078 331.843 16.6103C332.871 17.1425 333.605 18.097 334.045 19.4735C334.486 20.8684 334.706 22.9608 334.706 25.8057V54.9337C330.577 54.9337 327.218 51.5749 327.218 47.4453V25.8057ZM327.089 9.2319C326.172 8.18572 325.713 6.93763 325.713 5.48766C325.713 4.33134 326.061 3.41364 326.759 2.73453C327.456 2.07378 328.374 1.74341 329.549 1.74341C330.815 1.74341 331.916 2.27568 332.834 3.32187C333.752 4.36805 334.211 5.61613 334.211 7.06611C334.211 8.22242 333.862 9.14013 333.165 9.81924C332.467 10.48 331.549 10.8104 330.375 10.8104C329.09 10.8104 328.007 10.2781 327.089 9.2319Z" fill="#0C0421"/>
<path d="M350.363 54.6402C348.527 53.8877 346.967 52.658 345.664 50.9327C344.361 49.2074 343.7 46.9315 343.7 44.1049C343.7 39.8835 345.664 36.8917 349.573 35.1114C353.483 33.331 358.604 32.45 364.936 32.45H367.432C367.432 27.0172 366.679 23.2913 365.193 21.2907C363.688 19.2901 361.54 18.299 358.695 18.299C356.199 18.299 354.199 18.8313 352.712 19.8775C351.207 20.9236 350.161 22.7591 349.555 25.3653H345.811C345.811 23.4749 345.921 21.9882 346.141 20.9053C346.361 19.8224 346.949 18.8129 347.885 17.8585C348.876 16.8674 350.528 16.1332 352.84 15.656C355.135 15.1788 357.649 14.9402 360.366 14.9402C364.862 14.9402 368.405 16.1516 371.011 18.556C373.617 20.9787 374.92 25.5856 374.92 32.4133V54.8788H370.754L367.836 51.1346H367.414C366.422 52.4194 364.936 53.5023 363.009 54.3833C361.063 55.2642 358.659 55.7231 355.759 55.7231C353.978 55.7231 352.18 55.356 350.344 54.6035L350.363 54.6402ZM364.091 50.6941C365.321 49.8131 366.422 48.5833 367.414 47.0232V35.7905H364.917C360.806 35.7905 357.557 36.5614 355.171 38.0848C352.785 39.6082 351.592 41.6271 351.592 44.1233C351.592 46.6194 352.363 48.6384 353.887 49.9966C355.41 51.3548 357.282 52.0339 359.503 52.0339C361.338 52.0339 362.862 51.5934 364.073 50.6941H364.091Z" fill="#0C0421"/>
<path d="M136.335 78.2435C132.334 78.2435 128.589 76.6834 125.763 73.8569L125.194 73.2879C122.275 70.3696 118.421 68.7728 114.31 68.7728H55.2461C55.136 67.5981 54.1448 66.6804 52.9335 66.6804C51.6487 66.6804 50.6208 67.7266 50.6208 68.993C50.6208 70.2595 51.667 71.3057 52.9335 71.3057C54.1448 71.3057 55.136 70.388 55.2461 69.2133H114.291C118.293 69.2133 122.037 70.7734 124.863 73.5999L125.432 74.1689C128.351 77.0872 132.205 78.684 136.316 78.684H291.409V78.2435H136.335Z" fill="#0C0421"/>
<path d="M291.886 79.1432H136.335C132.095 79.1432 128.112 77.4913 125.12 74.4996L124.551 73.9306C121.816 71.1959 118.164 69.6908 114.31 69.6908H55.6314C55.3194 70.9205 54.2365 71.7832 52.9333 71.7832C51.4099 71.7832 50.1619 70.5351 50.1619 69.0117C50.1619 67.4883 51.4099 66.2402 52.9333 66.2402C54.2365 66.2402 55.3194 67.1212 55.6314 68.3326H114.291C118.531 68.3326 122.514 69.9845 125.506 72.9762L126.075 73.5452C128.809 76.28 132.462 77.785 136.316 77.785H291.868V79.1616L291.886 79.1432ZM52.9517 67.1396C51.9239 67.1396 51.0979 67.9839 51.0979 68.9934C51.0979 70.0028 51.9422 70.8471 52.9517 70.8471C53.9245 70.8471 54.7137 70.1313 54.8055 69.1585V68.7915C54.7137 67.837 53.9245 67.1029 52.9517 67.1029V67.1396Z" fill="#0C0421"/>
</svg>
